<svg width="68" height="34" viewBox="0 0 68 34" fill="none" xmlns="http://www.w3.org/2000/svg">
<rect width="68" height="34" rx="17" fill="#F6F7F9"/>
<path d="M45.2655 17.7423C45.4899 20.9525 48.2138 23.5642 51.4739 23.7076C53.774 23.8073 55.831 22.7352 57.0652 21.046C57.5763 20.3541 57.302 19.8928 56.4481 20.0486C56.0304 20.1234 55.6003 20.1546 55.1515 20.1359C52.1034 20.0112 49.6101 17.4618 49.5976 14.4511C49.5914 13.6408 49.7597 12.8741 50.0651 12.1759C50.4017 11.403 49.9966 11.0352 49.2174 11.3656C46.749 12.4066 45.0598 14.8937 45.2655 17.7423Z" stroke="#90A3BF" stroke-width="1.24667" stroke-linecap="round" stroke-linejoin="round"/>
<rect x="3" y="3" width="28" height="28" rx="14" fill="#3563E9"/>
<path d="M17.0001 21.3337C19.3933 21.3337 21.3334 19.3936 21.3334 17.0003C21.3334 14.6071 19.3933 12.667 17.0001 12.667C14.6068 12.667 12.6667 14.6071 12.6667 17.0003C12.6667 19.3936 14.6068 21.3337 17.0001 21.3337Z" fill="white"/>
<path d="M21.7599 21.7597L21.6733 21.673M21.6733 12.3263L21.7599 12.2397L21.6733 12.3263ZM12.2399 21.7597L12.3266 21.673L12.2399 21.7597ZM16.9999 10.3863V10.333V10.3863ZM16.9999 23.6663V23.613V23.6663ZM10.3866 16.9997H10.3333H10.3866ZM23.6666 16.9997H23.6133H23.6666ZM12.3266 12.3263L12.2399 12.2397L12.3266 12.3263Z" stroke="white" stroke-width="1.87" stroke-linecap="round" stroke-linejoin="round"/>
</svg>
