<svg width="100" height="63" viewBox="0 0 100 63" fill="none" xmlns="http://www.w3.org/2000/svg">
<path d="M11.0475 29L18.4875 13.88H10.0635V11.12H21.9195V13.88L14.6475 29H11.0475ZM23.1098 29V26.528L27.9578 21.464C28.9178 20.456 29.6538 19.656 30.1658 19.064C30.6938 18.456 31.0618 17.936 31.2698 17.504C31.4778 17.072 31.5818 16.632 31.5818 16.184C31.5818 15.432 31.3418 14.84 30.8618 14.408C30.3978 13.976 29.7978 13.76 29.0618 13.76C28.2938 13.76 27.6298 13.984 27.0698 14.432C26.5098 14.864 26.1018 15.504 25.8458 16.352L22.9898 15.464C23.1818 14.52 23.5738 13.704 24.1658 13.016C24.7578 12.312 25.4778 11.776 26.3258 11.408C27.1898 11.024 28.1018 10.832 29.0618 10.832C30.2138 10.832 31.2218 11.04 32.0858 11.456C32.9658 11.872 33.6458 12.456 34.1258 13.208C34.6218 13.96 34.8698 14.84 34.8698 15.848C34.8698 16.488 34.7498 17.12 34.5098 17.744C34.2698 18.368 33.9098 19.008 33.4298 19.664C32.9498 20.304 32.3258 21.024 31.5578 21.824L27.3578 26.24H35.1098V29H23.1098ZM38.0781 32.744V31.184C38.6061 31.056 39.0301 30.808 39.3501 30.44C39.6861 30.088 39.8941 29.608 39.9741 29H38.5581V25.64H41.7261V27.704C41.7261 29.112 41.4141 30.24 40.7901 31.088C40.1821 31.936 39.2781 32.488 38.0781 32.744ZM51.9602 29.288C50.5362 29.288 49.2882 28.904 48.2162 28.136C47.1442 27.368 46.3042 26.288 45.6962 24.896C45.1042 23.504 44.8082 21.888 44.8082 20.048C44.8082 18.192 45.1042 16.576 45.6962 15.2C46.2882 13.824 47.1202 12.752 48.1922 11.984C49.2642 11.216 50.5122 10.832 51.9362 10.832C53.3922 10.832 54.6482 11.216 55.7042 11.984C56.7762 12.752 57.6162 13.832 58.2242 15.224C58.8322 16.6 59.1362 18.208 59.1362 20.048C59.1362 21.888 58.8322 23.504 58.2242 24.896C57.6322 26.272 56.8002 27.352 55.7282 28.136C54.6562 28.904 53.4002 29.288 51.9602 29.288ZM51.9842 26.312C52.8002 26.312 53.4962 26.064 54.0722 25.568C54.6482 25.056 55.0882 24.336 55.3922 23.408C55.7122 22.464 55.8722 21.344 55.8722 20.048C55.8722 18.752 55.7122 17.64 55.3922 16.712C55.0882 15.768 54.6402 15.048 54.0482 14.552C53.4722 14.056 52.7682 13.808 51.9362 13.808C51.1362 13.808 50.4482 14.056 49.8722 14.552C49.2962 15.048 48.8482 15.768 48.5282 16.712C48.2242 17.64 48.0722 18.752 48.0722 20.048C48.0722 21.328 48.2242 22.44 48.5282 23.384C48.8482 24.312 49.2962 25.032 49.8722 25.544C50.4642 26.056 51.1682 26.312 51.9842 26.312ZM66.7684 29.288C65.7924 29.288 64.8644 29.112 63.9844 28.76C63.1204 28.392 62.3764 27.88 61.7524 27.224C61.1444 26.552 60.7284 25.76 60.5044 24.848L63.3604 23.84C63.6484 24.656 64.0884 25.28 64.6804 25.712C65.2724 26.128 65.9684 26.336 66.7684 26.336C67.4084 26.336 67.9604 26.216 68.4244 25.976C68.9044 25.736 69.2804 25.392 69.5524 24.944C69.8244 24.48 69.9604 23.936 69.9604 23.312C69.9604 22.688 69.8244 22.16 69.5524 21.728C69.2964 21.28 68.9284 20.936 68.4484 20.696C67.9684 20.456 67.4004 20.336 66.7444 20.336C66.4404 20.336 66.1204 20.368 65.7844 20.432C65.4644 20.496 65.1764 20.592 64.9204 20.72L64.1764 19.16L68.8084 13.88H61.5124V11.12H72.4804V13.688L67.8244 19.136L67.8724 17.912C68.9444 17.928 69.8804 18.16 70.6804 18.608C71.4804 19.056 72.1044 19.672 72.5524 20.456C73.0004 21.24 73.2244 22.16 73.2244 23.216C73.2244 24.368 72.9444 25.408 72.3844 26.336C71.8244 27.248 71.0564 27.968 70.0804 28.496C69.1044 29.024 68.0004 29.288 66.7684 29.288ZM82.1843 29.288C80.7603 29.288 79.5123 28.904 78.4403 28.136C77.3683 27.368 76.5283 26.288 75.9203 24.896C75.3283 23.504 75.0323 21.888 75.0323 20.048C75.0323 18.192 75.3283 16.576 75.9203 15.2C76.5123 13.824 77.3443 12.752 78.4163 11.984C79.4883 11.216 80.7363 10.832 82.1603 10.832C83.6163 10.832 84.8723 11.216 85.9283 11.984C87.0003 12.752 87.8403 13.832 88.4483 15.224C89.0563 16.6 89.3603 18.208 89.3603 20.048C89.3603 21.888 89.0563 23.504 88.4483 24.896C87.8563 26.272 87.0243 27.352 85.9523 28.136C84.8803 28.904 83.6243 29.288 82.1843 29.288ZM82.2083 26.312C83.0243 26.312 83.7203 26.064 84.2963 25.568C84.8723 25.056 85.3123 24.336 85.6163 23.408C85.9363 22.464 86.0963 21.344 86.0963 20.048C86.0963 18.752 85.9363 17.64 85.6163 16.712C85.3123 15.768 84.8643 15.048 84.2723 14.552C83.6963 14.056 82.9923 13.808 82.1603 13.808C81.3603 13.808 80.6723 14.056 80.0963 14.552C79.5203 15.048 79.0723 15.768 78.7523 16.712C78.4483 17.64 78.2963 18.752 78.2963 20.048C78.2963 21.328 78.4483 22.44 78.7523 23.384C79.0723 24.312 79.5203 25.032 80.0963 25.544C80.6883 26.056 81.3923 26.312 82.2083 26.312Z" fill="#1A202C"/>
<path d="M18.2491 59V48.57H21.9311C22.6218 48.57 23.2285 48.7007 23.7511 48.962C24.2738 49.2233 24.6798 49.5967 24.9691 50.082C25.2678 50.5673 25.4171 51.1367 25.4171 51.79C25.4171 52.5273 25.2305 53.1527 24.8571 53.666C24.4838 54.1793 23.9798 54.548 23.3451 54.772L25.7671 59H24.1711L21.6231 54.478L22.5331 55.01H19.6211V59H18.2491ZM19.6211 53.75H21.9731C22.3838 53.75 22.7431 53.6707 23.0511 53.512C23.3591 53.3533 23.5971 53.1247 23.7651 52.826C23.9425 52.5273 24.0311 52.182 24.0311 51.79C24.0311 51.3887 23.9425 51.0433 23.7651 50.754C23.5971 50.4553 23.3591 50.2267 23.0511 50.068C22.7431 49.9093 22.3838 49.83 21.9731 49.83H19.6211V53.75ZM29.9414 59.168C29.2134 59.168 28.5648 58.9953 27.9954 58.65C27.4261 58.3047 26.9781 57.8333 26.6514 57.236C26.3248 56.6293 26.1614 55.9527 26.1614 55.206C26.1614 54.45 26.3201 53.778 26.6374 53.19C26.9641 52.602 27.4028 52.14 27.9534 51.804C28.5134 51.4587 29.1388 51.286 29.8294 51.286C30.3894 51.286 30.8841 51.3887 31.3134 51.594C31.7521 51.79 32.1208 52.0607 32.4194 52.406C32.7274 52.742 32.9608 53.1293 33.1194 53.568C33.2874 53.9973 33.3714 54.4453 33.3714 54.912C33.3714 55.0147 33.3621 55.1313 33.3434 55.262C33.3341 55.3833 33.3201 55.5 33.3014 55.612H27.1134V54.492H32.5454L31.9294 54.996C32.0134 54.5107 31.9668 54.0767 31.7894 53.694C31.6121 53.3113 31.3508 53.008 31.0054 52.784C30.6601 52.56 30.2681 52.448 29.8294 52.448C29.3908 52.448 28.9894 52.56 28.6254 52.784C28.2614 53.008 27.9768 53.33 27.7714 53.75C27.5754 54.1607 27.4961 54.6507 27.5334 55.22C27.4961 55.7707 27.5801 56.256 27.7854 56.676C28.0001 57.0867 28.2988 57.4087 28.6814 57.642C29.0734 57.866 29.4981 57.978 29.9554 57.978C30.4594 57.978 30.8841 57.8613 31.2294 57.628C31.5748 57.3947 31.8548 57.096 32.0694 56.732L33.1614 57.292C33.0121 57.6373 32.7788 57.9547 32.4614 58.244C32.1534 58.524 31.7848 58.748 31.3554 58.916C30.9354 59.084 30.4641 59.168 29.9414 59.168ZM34.7891 59V51.454H36.0631V52.924L35.8531 52.798C36.0397 52.322 36.3384 51.9533 36.7491 51.692C37.1691 51.4213 37.6591 51.286 38.2191 51.286C38.7604 51.286 39.2411 51.4073 39.6611 51.65C40.0904 51.8927 40.4264 52.2287 40.6691 52.658C40.9211 53.0873 41.0471 53.5727 41.0471 54.114V59H39.7311V54.534C39.7311 54.114 39.6564 53.7593 39.5071 53.47C39.3577 53.1807 39.1431 52.9567 38.8631 52.798C38.5924 52.63 38.2797 52.546 37.9251 52.546C37.5704 52.546 37.2531 52.63 36.9731 52.798C36.7024 52.9567 36.4877 53.1853 36.3291 53.484C36.1704 53.7733 36.0911 54.1233 36.0911 54.534V59H34.7891ZM45.6961 59.084C44.9588 59.084 44.3895 58.874 43.9881 58.454C43.5961 58.034 43.4001 57.4413 43.4001 56.676V52.7H42.0281V51.454H42.3081C42.6441 51.454 42.9101 51.3513 43.1061 51.146C43.3021 50.9407 43.4001 50.67 43.4001 50.334V49.718H44.7021V51.454H46.3961V52.7H44.7021V56.634C44.7021 56.886 44.7395 57.1053 44.8141 57.292C44.8981 57.4787 45.0335 57.628 45.2201 57.74C45.4068 57.8427 45.6541 57.894 45.9621 57.894C46.0275 57.894 46.1068 57.8893 46.2001 57.88C46.3028 57.8707 46.3961 57.8613 46.4801 57.852V59C46.3588 59.028 46.2235 59.0467 46.0741 59.056C45.9248 59.0747 45.7988 59.084 45.6961 59.084ZM50.0172 59.168C49.5226 59.168 49.0839 59.0793 48.7012 58.902C48.3279 58.7153 48.0339 58.4633 47.8192 58.146C47.6046 57.8193 47.4972 57.446 47.4972 57.026C47.4972 56.6247 47.5812 56.2653 47.7492 55.948C47.9266 55.6213 48.1972 55.346 48.5612 55.122C48.9346 54.898 49.4012 54.7393 49.9612 54.646L52.7612 54.184V55.276L50.2552 55.696C49.7699 55.78 49.4152 55.934 49.1912 56.158C48.9766 56.382 48.8692 56.6573 48.8692 56.984C48.8692 57.292 48.9906 57.5487 49.2332 57.754C49.4852 57.9593 49.7979 58.062 50.1712 58.062C50.6472 58.062 51.0579 57.964 51.4032 57.768C51.7579 57.5627 52.0332 57.2873 52.2292 56.942C52.4346 56.5967 52.5372 56.214 52.5372 55.794V53.876C52.5372 53.4653 52.3832 53.134 52.0752 52.882C51.7766 52.6207 51.3799 52.49 50.8852 52.49C50.4559 52.49 50.0732 52.602 49.7372 52.826C49.4106 53.0407 49.1679 53.33 49.0092 53.694L47.8752 53.106C48.0152 52.7607 48.2392 52.4527 48.5472 52.182C48.8552 51.902 49.2146 51.6827 49.6252 51.524C50.0359 51.3653 50.4652 51.286 50.9132 51.286C51.4919 51.286 52.0006 51.398 52.4392 51.622C52.8779 51.8367 53.2186 52.14 53.4612 52.532C53.7132 52.9147 53.8392 53.3627 53.8392 53.876V59H52.5652V57.572L52.8032 57.656C52.6446 57.9547 52.4299 58.216 52.1592 58.44C51.8886 58.664 51.5712 58.8413 51.2072 58.972C50.8432 59.1027 50.4466 59.168 50.0172 59.168ZM55.578 59V48.402H56.88V59H55.578ZM65.7161 59.168C64.9788 59.168 64.2975 59.0373 63.6721 58.776C63.0561 58.5053 62.5148 58.1273 62.0481 57.642C61.5908 57.1567 61.2361 56.5873 60.9841 55.934C60.7321 55.2807 60.6061 54.5667 60.6061 53.792C60.6061 53.008 60.7321 52.2893 60.9841 51.636C61.2361 50.9827 61.5908 50.4133 62.0481 49.928C62.5055 49.4427 63.0468 49.0693 63.6721 48.808C64.2975 48.5373 64.9788 48.402 65.7161 48.402C66.4348 48.402 67.0788 48.528 67.6481 48.78C68.2268 49.032 68.7121 49.3587 69.1041 49.76C69.5055 50.1613 69.7901 50.5907 69.9581 51.048L68.6981 51.622C68.4555 51.0433 68.0775 50.5767 67.5641 50.222C67.0508 49.858 66.4348 49.676 65.7161 49.676C64.9881 49.676 64.3395 49.8487 63.7701 50.194C63.2101 50.5393 62.7715 51.02 62.4541 51.636C62.1368 52.252 61.9781 52.9707 61.9781 53.792C61.9781 54.604 62.1368 55.318 62.4541 55.934C62.7715 56.55 63.2101 57.0307 63.7701 57.376C64.3395 57.7213 64.9881 57.894 65.7161 57.894C66.4348 57.894 67.0508 57.7167 67.5641 57.362C68.0775 56.998 68.4555 56.5267 68.6981 55.948L69.9581 56.522C69.7901 56.9793 69.5055 57.4087 69.1041 57.81C68.7121 58.2113 68.2268 58.538 67.6481 58.79C67.0788 59.042 66.4348 59.168 65.7161 59.168ZM73.4656 59.168C72.9709 59.168 72.5322 59.0793 72.1496 58.902C71.7762 58.7153 71.4822 58.4633 71.2676 58.146C71.0529 57.8193 70.9456 57.446 70.9456 57.026C70.9456 56.6247 71.0296 56.2653 71.1976 55.948C71.3749 55.6213 71.6456 55.346 72.0096 55.122C72.3829 54.898 72.8496 54.7393 73.4096 54.646L76.2096 54.184V55.276L73.7036 55.696C73.2182 55.78 72.8636 55.934 72.6396 56.158C72.4249 56.382 72.3176 56.6573 72.3176 56.984C72.3176 57.292 72.4389 57.5487 72.6816 57.754C72.9336 57.9593 73.2462 58.062 73.6196 58.062C74.0956 58.062 74.5062 57.964 74.8516 57.768C75.2062 57.5627 75.4816 57.2873 75.6776 56.942C75.8829 56.5967 75.9856 56.214 75.9856 55.794V53.876C75.9856 53.4653 75.8316 53.134 75.5236 52.882C75.2249 52.6207 74.8282 52.49 74.3336 52.49C73.9042 52.49 73.5216 52.602 73.1856 52.826C72.8589 53.0407 72.6162 53.33 72.4576 53.694L71.3236 53.106C71.4636 52.7607 71.6876 52.4527 71.9956 52.182C72.3036 51.902 72.6629 51.6827 73.0736 51.524C73.4842 51.3653 73.9136 51.286 74.3616 51.286C74.9402 51.286 75.4489 51.398 75.8876 51.622C76.3262 51.8367 76.6669 52.14 76.9096 52.532C77.1616 52.9147 77.2876 53.3627 77.2876 53.876V59H76.0136V57.572L76.2516 57.656C76.0929 57.9547 75.8782 58.216 75.6076 58.44C75.3369 58.664 75.0196 58.8413 74.6556 58.972C74.2916 59.1027 73.8949 59.168 73.4656 59.168ZM79.0263 59V51.454H80.3003V52.84L80.1603 52.644C80.3377 52.2147 80.6083 51.8973 80.9723 51.692C81.3363 51.4773 81.7797 51.37 82.3023 51.37H82.7643V52.602H82.1063C81.5743 52.602 81.145 52.77 80.8183 53.106C80.4917 53.4327 80.3283 53.8993 80.3283 54.506V59H79.0263Z" fill="#90A3BF"/>
</svg>
